Genre:Comedy | Family
Language:English
IMDb:http://www.imdb.com/title/tt1663187/ 
Source:DVD

Format : MPEG-4
Format profile : Base Media
Codec ID : isom
File size : 1.30 GiB
Duration : 1h 43mn
Overall bit rate : 1 795 Kbps

Video
Format profile : High@L4.1
Format settings, CABAC : Yes
Format settings, ReFrames : 3 frames
Codec ID : avc1
Codec ID/Info : Advanced Video Coding
Duration : 1h 43mn
Bit rate mode : Variable
Bit rate : 1 349 Kbps
Maximum bit rate : 6 469 Kbps
Width : 720 pixels
Height : 400 pixels
Display aspect ratio : 16:9
Frame rate mode : Constant
Frame rate : 23.976 fps
Color space : YUV
Chroma subsampling : 4:2:0
Bit depth : 8 bits
Scan type : Progressive
Bits/(Pixel*Frame) : 0.195
Stream size : 999 MiB (75%)
Writing library : x264 

Audio
ID : 2
Format : AAC
Format/Info : Advanced Audio Codec
Format version : Version 4
Format profile : LC
Format settings, SBR : No
Codec ID : 40
Duration : 1h 43mn
Bit rate mode : Variable
Bit rate : 444 Kbps
Maximum bit rate : 543 Kbps
Channel(s) : 6 channels
Channel positions : Front: L C R, Side: L R, LFE
Sampling rate : 48.0 KHz
Stream size : 329 MiB (25%)
Encoded date : UTC 2011-03-03 13:03:58
Tagged date : UTC 2011-03-03 13:05:02


Plot:
An ex-con on the run from his criminal past, hides out from those he ratted on by chaperoning a field trip to New Orleans.





================================== 
http://thepiratebay.org/user/hiest
==================================





Screenshots:
 
http://www.postimg.com/30000/29451.jpg
 
http://www.postimg.com/30000/29452.jpg
 
http://www.postimg.com/30000/29453.jpg
 
http://www.postimg.com/30000/29454.jpg
 
http://www.postimg.com/30000/29455.jpg
 
http://www.postimg.com/30000/29457.jpg